<svg width="31" height="31" viewBox="0 0 31 31" fill="none" xmlns="http://www.w3.org/2000/svg">
<path opacity="0.6" d="M1.29665 0.0473272C1.44242 0.00428845 1.59524 -0.00958985 1.74638 0.00648634C1.89751 0.0225625 2.04399 0.0682778 2.17744 0.141017C2.31089 0.213756 2.42869 0.312092 2.5241 0.430399C2.61952 0.548706 2.69067 0.684664 2.73349 0.830494L3.5814 3.70108H26.1745C29.0112 3.70108 31.1772 6.34812 30.3601 9.11232L27.8087 17.7457C27.266 19.5864 25.5409 20.8136 23.6231 20.8136H9.50757C7.58974 20.8136 5.86615 19.5864 5.32194 17.7457L0.516571 1.4857C0.429529 1.19172 0.462811 0.875206 0.609098 0.60576C0.755385 0.336314 1.0027 0.134458 1.29665 0.0473272ZM6.63544 26.5948C6.63544 25.6749 7.0009 24.7926 7.65142 24.142C8.30194 23.4915 9.18423 23.1261 10.1042 23.1261C11.0242 23.1261 11.9065 23.4915 12.557 24.142C13.2075 24.7926 13.5729 25.6749 13.5729 26.5948C13.5729 27.5148 13.2075 28.3971 12.557 29.0476C11.9065 29.6981 11.0242 30.0636 10.1042 30.0636C9.18423 30.0636 8.30194 29.6981 7.65142 29.0476C7.0009 28.3971 6.63544 27.5148 6.63544 26.5948ZM18.9688 26.5948C18.9688 26.1393 19.0585 25.6882 19.2328 25.2674C19.4071 24.8465 19.6626 24.4642 19.9847 24.142C20.3069 23.8199 20.6892 23.5644 21.1101 23.3901C21.5309 23.2158 21.982 23.1261 22.4375 23.1261C22.893 23.1261 23.3441 23.2158 23.765 23.3901C24.1858 23.5644 24.5682 23.8199 24.8903 24.142C25.2124 24.4642 25.4679 24.8465 25.6422 25.2674C25.8166 25.6882 25.9063 26.1393 25.9063 26.5948C25.9063 27.5148 25.5408 28.3971 24.8903 29.0476C24.2398 29.6981 23.3575 30.0636 22.4375 30.0636C21.5176 30.0636 20.6353 29.6981 19.9847 29.0476C19.3342 28.3971 18.9688 27.5148 18.9688 26.5948Z" fill="black"/>
</svg>
